<svg xmlns="http://www.w3.org/2000/svg" width="59" height="80" fill="none"><g fill="#F9CF01" clip-path="url(#a)"><path d="M1.74 34.199c-.145.144.088.233.1.283.172-.294-.156-.31-.1-.283zm1.673-2.944.039.105.133-.528-.172.422zm2.001-2.412c-.5-.034-.678.917-1.14 1.256l-.127.01.083.401c.395-.556.79-1.373 1.184-1.667zm1.74-.724c-.184-.022.133-.361-.29.267.04-.017.05-.022.078-.028.045-.056.1-.122.212-.239zm-.212.241c.239-.084-.206.26 0 0zm.912-1.225-.178.422c.128-.01.395-.288.35-.138.228-.39.1-.378-.177-.284h.005zm.049-.5-.105.211c.055 0 .105-.039.105-.211z"/><path d="m7.587 27.291.217-.445c-.089.006-.189-.072-.106.195-.066-.106-.039.039-.105.25h-.006zm-.223.167c-.222.128-.467.334-.289-.089-.495.673-.205.756.29.09zm-2.156.995-.3.172-.078.3c.039-.15.489-.411.378-.478v.006zm4.574-3.229c-.044-.078-.267-.039-.367-.083l-.139.305c.15-.089.395-.289.506-.222zm-.367-.084.206-.462c-.295.311-.295.417-.206.461zM7.62 26.29l-.284.8.378-.916-.094.117zm3.375-2.445-.034.334.1-.556-.066.222zm.783-.935c-.011.256.389-.027.322.2.195-.266.278-.572.356-.844-.128.25-.328.455-.678.644zm.817-1.09c-.06.128-.1.278-.144.44a1.36 1.36 0 0 0 .144-.44zm-2.407 2.27c.062.005.212.039.434-.128l-.306-.017c-.039.045-.083.09-.128.14v.005z"/><path d="M10.304 23.95h.012c.138-.15.239-.255.277-.3l-.289.3zm-.149.173.033-.033c-.028 0-.044 0-.033.033zM8.61 25.479c.083-.3.36-.84-.162-.54-.01.262.29.09.161.54zm1.167-1.374-.378.35c.056.034.183.023.139.173l.233-.523h.006zm.105-.238-.105.24.139-.129-.034-.11zm1.968-1.534c.066-.234.222-.423.389-.64-.228.19-.445.4-.64.617.028.078.045.262.245.023h.006zm-.767.774.022-.044c-.033.01-.055.022-.022.044zm2.952-3.414-.061.006.022.033.039-.039z"/><path d="M11.54 22.316a.607.607 0 0 0-.25.41c.088-.138.194-.277.316-.422-.011-.033-.028-.055-.067.006v.006zm1.471-1.123c-.11.05-.233.123-.35.195.133-.034.373-.128.35-.195zm-1.805 1.852-.011.033c.083-.022.06-.027.01-.033z"/><path d="M11.206 23.045c.05-.105.06-.21.083-.317a2.191 2.191 0 0 0-.183.328c.033-.01.066-.01.1-.01zm2.234-4.976c.138.178-.095.745-.606.962-.206.478.55.716 1.133.672-.06-.078-.127-.133.112-.6-.206.05-.956.65-.823.2.361-.578.422-.356.728-.523-.389.023.273-.9-.122-1.061l-.29.533c-.055-.033.012-.26-.138-.177l.005-.006zm-.128 2.331-.117.171c.19-.15.367-.216.7-.339.15-.328.14-.439.1-.505l-.705.744.022-.072zm-.74.871c-.072-.278.19-.723-.21-.667-.396.467-.14.45-.301.795.611-.778-.089.3.484-.14-.1.173-.206.312-.306.44a3.99 3.99 0 0 1 .417-.306c-.011 0-.017 0-.028.006-.05.01-.072.01-.028-.017 0 0 .006-.017.011-.017-.022-.027-.027-.06-.039-.094.228-.178.078.005.04.094l.016.034.561-.823c-.16.134-.333.334-.622.695h.005zM8.398 24.2c.033-.01.05 0 .061.012.022-.067.022-.1-.061-.012zm.378-.21c-.022.078.011.183-.161.344-.189.106-.083-.078-.15-.122-.045.15-.195.484.183.228l.023-.072c.322-.245.883-.44.861-.362a1.614 1.614 0 0 0-.756-.016zm1.869-1.43.455-.695-.433.178.105.067c-.344.317-.167.344-.127.45zm3.539-2.856.117.25.05-.595-.167.345zm.69-.818.139.178.089-.3-.228.122zM54.86 31.021l.3.312a3.4 3.4 0 0 0-.3-.311zm-1.534-2.085-.111.033c.094.028.15.028.111-.034zm-22.9-23.122c.067.406.067.912.234.723l.116-.239a1.23 1.23 0 0 1-.35-.484zm12.778 12.795a.977.977 0 0 0-.011-.128c-.117-.011-.228-.017-.328-.028.106.045.222.1.345.156h-.006zm.918-.472.189.456a2.153 2.153 0 0 0-.19-.456zm4.185 16.929-.283.245c.439 0 .25-.128.283-.245zM22.194 10.76c.278-.155.467-.305.623-.455-.35.172-.706.25-.623.456zM51.68 31.025a.325.325 0 0 0 .207.028c-.09-.05-.156-.061-.206-.028zM23.418 9.666c-.056.022-.1.05-.15.078-.123.189-.25.377-.445.56.261-.127.517-.31.595-.644v.006zm-9.789 25.202s-.056-.017-.078-.028c-.005.033.028.033.078.028zM3.502 32.432c.1-.017.261-.017.417-.017-.072-.016-.2-.016-.417.017zm14.334-16.659c0 .045-.138.178 0 0zm-1.446.174c.012-.055.012-.105-.027-.144.028.055.039.1.028.144zm7.477-8.955.017-.012c-.083.017-.067.017-.017.012zm-6.342 8.96c.078-.045.161-.1.25-.167a2.007 2.007 0 0 0-.25.167zm.117.044c-.06.05-.105.095-.15.128.011.05.045.044.15-.128z"/><path d="M18.042 15.535c-.083.1-.172.178-.266.256.044-.022.066-.028.06-.011.045-.05.106-.123.206-.24v-.005zM32.21 34.221s-.033-.01-.05-.022c-.227.1-.127.084.05.023zm3.913-25.456-.028-.011c0 .011.011.022.017.033l.01-.016v-.006z"/><path d="M36.785 9.27c-.45-.072-.55-.244-.673-.489l-.361.656 1.028-.167h.006z"/><path d="m55.516 34.85 1.234.19c-.628.372-1.79.289-.4.556-.395-.373.522-.417 1.445-.462l.339-.016h.039l-.028-.04-.056-.077-.11-.15a9.228 9.228 0 0 0-.446-.556c-.3-.339-.6-.606-.922-.745l-.084-.405c.09.138.173.188.262.327-.056-.4-.412-.672-.795-.933-.395-.273-.817-.534-1.156-1.09-.206-.389-.3-.706.01-.428l-.883-.884c-.178-.266-.011-.26.178.017l-.556-.695-.406-.483h.023c-.195-.061-.556-.245-.729-.334-.089-.294.15.067.184-.05l-.528-.383c0-.323.467-.028.706.333.239-.922-.467-.294-.89-1.556l.44.406c.105-.567-.306-.828-.506-1.523-.011.21.3 1.467-.267 1.05-.072-.183-.206-.4-.55-.595.21-.172-.067-.405-.356-.744l.294-.2c-.383-.312-.5-.173-.8-.295-.311-.44-.167-.7-.067-.945-.5-.706.034.74-.661-.011-.345-.645-.778-.94-1.49-1.462-.222-.461.223-.072.19-.272l-.5-.161c-.068-.09.027-.117.071-.134-.322-.216-.294.206-.744-.183-.4.133-.34-1.295-1.151-1.557-.039-.2.222-.077.289-.205-.873-.567-.717-.512-1.55-.878l-.279-.678c.134.56-.533.272-1.106.016.023.223.04.412.067.528l-.745-.561c-.028-.122.122-.134.334-.117a1.95 1.95 0 0 0-.173-.072c-.116-.334.15-.34.456-.295l.05.395c.311.028.628.028.756-.145a.79.79 0 0 1-.267-.16c.084.005.15 0 .156-.045.005-.05-.117-.067-.284-.123l.162-.416-.15.066-.6-1.061c-.862-.378-1.796-.545-2.808-1.462.44.061.406-.256.678-.467-.033.517.806.69 1.212 1.267-.211-.3-.033-.35.067-.317l-1.073-.722c.233-.161-.017-.34-.139-.662-.256.55-.89-.46-1.35-.733.122-.145.344-.178.717.322-.134-.79-1.073-.245-1.246-.984.1.111.134.195.245.178-.356-.161-.823-.9-.567-.856l.1.111c-.606-.806-1.984-2.334-2.44-2.14.039-.044.523-.266.634-.283l-2.374-.35c.412-.14.762-1.229 1.473-.734a1.816 1.816 0 0 0-.683-.784c.06.162-.19.69-.362.54-.044-.762-.089-.484-.278-1.307.09.245-.572.445-.806.134.112-.017.462-.428.606-.362l-1.095-.344c.24.111.434-.306.434-.584-.034.156-.523-.65-.734-.806l.15.406c-.617-.9-1.362-.272-2.017-1.134.183.022.822-.25.533-.728-.206 0-.678.028-1.2-.022-.556-.09-1.006-.067-1.245-.167 0-.094.005-.189 0-.289a2.53 2.53 0 0 0-.367-.133c.133-.223.439-.428.956-.367.25.022.55.105.85.233.078.034.15.067.222.095.062.022.123.039.184.055l.317.111c-.073-.205-.045-.26-.056-.322-.011-.072-.011-.089-.345-.49-.122-.427.584.312.629.351-.084-.133-.384-.528-.617-.861L30.42.968c-.117.456-1.257-1-1.235-.462.484.406 1.017.89 1.623 1.434-.072.19-.428.15-.789.028a2.315 2.315 0 0 1-1.073-.772c-.033 0-.072.06-.11.089-.173.01.044-.756.16-1.14a.225.225 0 0 0 .04-.122c-.006 0-.017 0-.034-.011-.211.372-.934 1.284-1.04 1.261l.412-.717c-.311.223-.55.65-.75 1-.212.362-.406.662-.845.868-.117.106-.384.211-.595.3-.167.045-.3.1-.234.19.573.016 1.573.877 1.634 1.278-.077.038-1.133.605-1.472.65-.506.05-.184-.967-.617-.928.066.077.01.322-.023.41-.233.118-.16-.288-.489.129.217.322-.767.761.061.4-.278.45-.433.35-.845.806.312.028.228.967-.044 1.423-.05-.09-.222-.09-.3-.09-.75.757-1.273 1.051-1.951 1.774-.128 0-.54.278-.517.017-.05.15-.044.333-.245.567-.644.21.428-.534-.166-.473.133.178-.317.79-.517 1.2.339.134.733-.694.934-1.105.344.316.183 1.211-.362 2.117-.472.684-.467.056-.511.206-1.112 1.084-.295 1.523-1.412 2.24-.567.172-.456-.384-.689-.45.372-.573.84-.628 1.14-.973l-.484.317c.072-.223.322-.606.55-.728-.489.133-1.812 1.89-2.801 2.601-.067.222-.24.567-.034.517l.223-.306c.411-.094-.234.75.172.473-.217.489-.406 1.084-.984 1.523l-.344-.128c.083.055.46-.211.522-.428-.089.322-1.078.5-.961 1.045l.51-.212c-.216.495-.366 1.201-.872 1.596.445.01.067-.134.662-.2-.623-.04 1.1-1.184.3-1.067.65-.034.678-.462 1.373-.645-.095-.061-.3.01.094-.34-.005-.038 0-.11 0-.15.011-.01.017-.01.028-.022l-.028.011c0-.027 0-.033-.01 0-.123.062-.234.095-.312.084-.011-.367.561-.984.656-1.284.25-.195.005.183.21.139l.14-.45c.211.139.872-.34.478.31l.456-.483c.367-.194.772-.556.922-.872.256-.195.334-.773.295-.44l.595-.872.05.033c.722-.739 1.145-1.84 2.278-2.395.19-.3.378-.612.829-.99l.233.067c.25-.378 1.073-.828 1.04-1.123.756.05 1.578-1.49 2.195-1.984l-.183-.217a6.444 6.444 0 0 0 .772-.956c.028-.067.056-.133.09-.206l-.156-.194c.044-.178.2-.306.355-.39.145-.071.284-.105.4-.177.023.039.05.072.073.1-.023.072-.05.056-.078-.011-.017-.017-.034-.006-.05-.022.017.027.033.039.044.072.1.44.2.378.406.45.1.028.211.084.3.161.15.156.312.384.378.623a.803.803 0 0 1 .378.467.153.153 0 0 0-.05-.04c.011.023.039.05.061.084.034.111.067.234.117.35a1.417 1.417 0 0 0-.078-.31c.122.144.334.35.562.533l-.128.261s.027.028.05.044c.1.278.239.095.3-.15.122.084.25.15.361.19-.189.45.59.483.428 1.017.295.005 1.045.994 1.5.805-.038.045-.01.128-.11.017.16.278.322.556.606.69l-.173.322.795.233c.111.456.133.667-.339.517.956.511.645.528 1.5.923l-.194.111c.206.228.745.411.728.667.128.795 2.157 2.618 3.018 4.196.267-.683.317.806.74.534-.05.178.05.417-.24.295.707.578.707 1.172 1.435 1.361-.05.178-.295 0-.306.134.072.033.29.128.284.255-.006.128-.184-.016-.328-.077.622.672 1.034.428 1.411.189.145.489.323.639.762.7 0 .217.056.517-.356.128.195.25 1.112 1.612 1.4 1.406 0 .133.273.356.357.395.45.555.466.628.944 1.145l-.083-.19c.506-.066.45.384.856.784l-.044.017c.594 1.195.472.34 1.017 1.55l.161-.222c.522-.272.461 1.096 1.095 1.529l-.05-.306c.411.19.105 1.373.306 1.735.016.1-.15-.062-.256-.134.4 1.04.361-.111.917.461-.056.234-.49.15-.189.59.044.3 1.44.839 1.595 1.64.017-.218.034-.429.345-.206.194.205.317.594.472.945.034.077.1.194.111.227a.286.286 0 0 0 .067.106c.056.061.145.095.3.117a.128.128 0 0 1-.083.078c.25.133.667.572 1.156.817-.606-.045-.278.21.172.644l.084.078s.078.067.05.061a.232.232 0 0 1-.061.04.362.362 0 0 1-.184.033c-.155 0-.356-.078-.672-.29l-.64.045-.06-.089c-.44-.055-.473.15-.634.35-.14-.055-.056-.139-.061-.183l-.24-.056a16.09 16.09 0 0 1-.333-.033 2.749 2.749 0 0 0-.528.005c-.317.04-.611.156-1.14.367l-.105-.278c-.283.162-1.8-.433-3.03-.11.012-.034.04-.084.134-.123-1.378.322-3.29-.761-3.802.239l-.911.245c1.172.077-.178.433.305.6-.46.061-1.195-.3-.622-.356l.089.05c.211-.522-1.462-.183-1.429-.539-2.312.028-4.569-.261-6.736-.284l.25.406-.756-.022c-.2-.094-.267-.317.272-.3-.283-.228-.906.194-.922.283-1.056-.166.411-.472.089-.483l-.44.028.1.05c-.355.166-.389.344-1.039.322-.411-.083-.211-.25-.372-.267 0-.028-.056-.044-.25-.01l-.95-.034.377.322c-.422.156-.895-.017-.456.345-.644-.562-3.551-.2-3.952-.378-.589.233-1.172.228-1.895.2.178.067.29.428-.333.383.227-.744-1.14-.322-1.646-.861.45.356-1.773.089-1.067.595-.522-.062-.033-.278-.428-.456-1.24.289-2.729-.19-4.263-.09-.022.1.233.245-.095.396l-.811-.49c-.3.05-.278.567-.828.223.078.083.194.205-.006.239-3.001-.478-6.125.389-9.176-.506.41.189.138.206-.178.217.205.044 0 .239.039.372l-1.279-.367c-.228.367-1.367.023-1.495.378l.406-.06c-.534.416.761.922.683 1.455.595-.472 1.59.7 2.574.023.217.11-.184.172-.067.294.25-.228.55-.278 1.112-.172l-.061.055c1.573-.055 2.245.167 4.013.317l-.134-.261c.378.033.462.117.64.183.433-.4-1.068-.022-.673-.46.506.533 2.674.005 3.018.616.584 0-.172-.306.412-.3l.155.167.145-.212c.383.034.578.24.589.378-.095-.016-.261.04-.361.05.494.195 1.4-.066 1.567 0l-.561-.1c1.59-.155 3.535.062 5.074-.272l-.117-.122c1.173-.228.94.139 2.23.027l-.045.028c.256-.122.6-.189.956-.172-.328.145.611.284.183.445 1.273-.245.628-.195 1.473-.656l.195.206c.289-.19.311-.284.956-.34-.528.178.411.317-.184.55 1.351.45 2.007-.455 2.63.206.622-.572-1.168-.316-.823-.439-.29-.189.511-.428.94-.367.433.011.733.728 1.817.717-.106 0-.117.04-.223.04.406.144.795-.195 1.296.038.277-.344.644.022.728-.422l-.995.1c.567-.117 1.095-.628 2.029-.378-.073.089-.35.206-.54.272.273.128.523-.083.806.045-.083.439-1.211.094-1.817.433.289.184 1.145-.317.839.156.44-.606 1.073.078 1.806-.39l-.05.262c.117-.039.356-.167.573-.161l-.39.345c.596-.29 1.146.255 1.718.094-1.195.006-.266-.317-.772-.511 1.478-.356.845.689 2.495.561-.222.039-.839-.161-.489-.278.317.056.728.156.923.295 1.095-.056-.167-.273.3-.434.373.322.54-.133 1.017-.233v.266c1.25.173.334-.56 1.456-.35l-.477.373.583-.095-.122.306c.639-.228.834-.167 1.462-.084-.145-.188.083-.489.639-.494.378.161-.211.255.572.217-.178.166-.372.378-.711.133-.033.089-.178.167-.211.256.405.183 1.017.044 1.3.039-.11-.012-.239-.023-.305-.062l1.14-.372c.177.1.032.184-.107.261.228-.028.39-.15.729-.178-.09.217-.073.445-.55.545l1.083-.244c.072.094.55.26.411.339.6.128 1.473-.423 2.268-.256.04-.044.123-.083.295-.117.372.023.722.106 1.095.14a4 4 0 0 0 .572.01c.1-.005.2-.022.306-.044.05-.011.106-.022.161-.04l.261-.05c.29.129.606.262.956.39.629-.044.256-.167.023-.3-.24-.128-.334-.267.528-.345 1.19-.122.706.334 1.273.445l.467-.172c.16-.067.333-.128.527-.178.4-.095.879-.128 1.712.016-.272.078-.666.034-.995.067l.023.028zm-3.891-7.92c.145.095.49.25.44.445-.362.039-.334-.167-.44-.445zm-8.86-9.61c.15.034.24.206.306.44a1.163 1.163 0 0 1-.306-.44zm-23.411-3.518v-.022c.328-.2.205-.134 0 .022zm-.606.489c-.022.083.005.105.055.105-.016-.083.1-.216.245-.344-.089-.006-.189.033-.3.244v-.005zm11.039 18.13.15.073c-.34.078-.245.006-.15-.072z"/><path d="M44.016 18.191c0 .067-.034.106-.061.15.077.023.116-.01.06-.15zm4.346 16.832h-.027s-.023.028-.028.045l.05-.045h.005zM25.2 4.035a.756.756 0 0 1 .312-.128c-.044-.05-.133-.039-.311.128zm-8.848 13.558.278-.411c-.15.183-.25.205-.361.266.055.034.183.028.083.145zm-4.085 2.062c-.022.077-.1.116-.122.189l.105.066c.2-.233.267-.461.017-.26v.005zm3.118-2.325c-.195-.122-.345.156-.545.44.011-.017.028-.034.039-.045.167.29.334-.056.5-.395h.006zm-.589.506a1.447 1.447 0 0 1-.211.239c.067.117.106-.078.211-.24zm3.408-2.735c-.156.083.144.272.01.278.09.328.479-1.034-.01-.278zm-3.558 1.941.288.094-.033-.294-.255.2zm1.979-1.88-.428.356c.039.028.01.094-.028.172.233-.244.528-.483.456-.528zm-.456.529c-.123.128-.234.256-.262.362a2.42 2.42 0 0 0 .262-.362zm-1.079.735.15-.083.279-.273-.428.356zm5.581-5.582.35-.495c-.028-.111-.183-.028-.306.161-.05.15-.172.339-.044.334zm-1.794.818c.15-.078.205-.045.333-.05l-.239-.25-.095.3zm1.133-1.345c-.028-.111.395-.828-.111-.256.028.111-.323.606.111.256zm6.513-6.303-.1.11.428.379-.328-.49zm6.482.395c-.344-.634-.378.088-.65-.512-.211-.044.222.495.028.434.378.244.461.467.622.077z"/><path d="M32.383 4.33a2.275 2.275 0 0 0-.206-.117c.106.072.161.1.206.117zM1.823 32.132l-.461-.122.3.194.16-.072zm-.878.417-.112-.361-.272.327c.106-.016.306-.044.384.034zm50.453-7.076-.09.027c-.027.117.034.206.156.384l-.066-.406v-.005zm4.457 6.337-.1-.15c-.072.09-.15.167-.233.234a3.62 3.62 0 0 0 .333-.084zm-2.485 3.769c.434.01.873-.062 1.3-.045-.889.061-1.661-.361-1.3.045zM5.236 33.656c.023-.195-.21-.122-.255-.15.05.322.317.144.255.15zm.539 3.2-.094-.055.239.472-.145-.417zm0 2.997c.394-.283-.062-1.084.077-1.623l.09-.089-.317-.239c.05.65.26 1.495.15 1.951zm-.862 1.6c.156-.1.134.344.05-.373-.016.033-.027.044-.039.067 0 .067 0 .155-.01.306z"/><path d="M4.925 41.148c-.011-.317-.128.205 0 0zm.083 1.456-.134-.416c-.089.088-.116.455-.177.316.072.428.166.34.316.1h-.005zm.289.394-.055-.217c-.04.04-.05.095.055.217z"/><path d="m5.12 42.326.122.456c.067-.061.194-.067-.045-.212.117.04 0-.055-.077-.25v.006zm.06-.256c.09-.234.14-.534.278-.117-.056-.795-.333-.678-.278.117zm1.006-2.063.117-.31-.133-.273c.066.133-.106.6.016.583zM4.79 45.193c.084.028.229-.139.334-.167l-.094-.305c-.061.155-.111.456-.24.478v-.006zm.335-.172.145.462c.016-.412-.05-.484-.145-.462zm.61-1.945-.3-.756.306.9-.006-.144zm-.965 3.869-.195-.261.289.467-.095-.206zm.02 1.167c-.16-.195-.277.261-.372.056.028.316.162.589.284.833-.067-.26-.045-.533.089-.889zm.09 1.295c-.038-.127-.105-.26-.177-.41.039.138.089.271.178.41zm.339-3.139c-.05.033-.184.1-.245.36l.24-.177v-.183h.005zm.005.172H5.22c-.011.2-.017.339-.017.394 0-.05.011-.167.022-.395zm-.004-.217v.044c.022-.017.033-.028 0-.044zm.294-1.946c.133.273.272.834.478.29-.161-.195-.278.116-.478-.29zM5.52 46l.055-.488c-.06.01-.155.094-.222-.04l.161.529h.006z"/><path d="M5.592 46.239 5.52 46l-.022.178.094.061zm-.484 2.335c.1.211.105.445.122.706.05-.278.078-.567.078-.84-.072-.038-.206-.16-.2.14v-.006zm.078-1.034s.011.033.011.044c.022-.027.028-.05-.011-.044zm.016 4.301.045-.039-.04-.011-.005.05zm.156-3.451a.542.542 0 0 0-.083-.456c.022.155.039.322.039.5.033.017.055.022.044-.045zm-.372 1.735c.05-.111.094-.233.133-.361-.078.105-.194.322-.133.361zm.144-2.469-.01-.033c-.05.067-.029.061.01.033zm0 0c.034.106.09.195.145.278a2.032 2.032 0 0 0-.078-.35c-.016.028-.044.05-.066.072zm1.59 4.98c-.223-.039-.417-.594-.173-1.067-.16-.472-.89-.172-1.295.234.095.016.184.016.311.5.123-.167.295-1.067.49-.656.105.64-.084.522-.206.834.278-.262.389.817.795.683l-.134-.561c.061-.011.162.194.223.039l-.011-.006z"/><path d="m5.28 50.886-.022-.2c-.039.227-.133.389-.306.683.106.334.184.4.256.423l.045-.979.033.067-.006.006zm-.016-1.096c.239.156.333.634.6.345-.01-.584-.194-.411-.294-.761.05.939-.134-.273-.273.405a3.376 3.376 0 0 1-.06-.506 4.109 4.109 0 0 1-.112.484c.006-.006.011-.017.017-.022.027-.04.05-.056.033-.006v.022a.193.193 0 0 1 .089.045c-.05.272-.061.044-.089-.045-.011 0-.022-.01-.033-.01l.122.944c.033-.2.033-.45.011-.89l-.011-.005zm1.239-4.712c-.022.028-.04.028-.056.028.028.061.05.083.056-.028z"/><path d="M6.359 45.46c-.034-.066-.128-.127-.1-.35.072-.194.116 0 .194-.005-.06-.133-.166-.472-.289-.05l.034.067c-.084.378-.384.861-.417.8a1.63 1.63 0 0 0 .583-.456l-.005-.005zm-.484 2.196.111.784.212-.4-.123.016c.05-.444-.1-.35-.194-.406l-.006.006zm-.789 4.276-.256-.106.356.456-.1-.35zm.016 1.018-.222-.04.133.273.089-.234zm32.966 22.547.223-.083a.945.945 0 0 0-.223.083zm-1.662.128-.033.111c.072-.067.1-.111.033-.111zM4.513 79.277c-.05.162-.105.334-.155.5.26.178.567.329.661.134 0-.078.017-.161.028-.239a2.787 2.787 0 0 1-.595.017c.017-.145.04-.278.061-.406v-.006zm18.354-1.517a57.956 57.956 0 0 0-.1-.067c-.078.084-.15.167-.217.24.095-.05.206-.112.317-.173zm.194-1.006.45.139c-.1-.05-.244-.095-.45-.14zm24.023-2.414.239-.272c-.417.05-.217.15-.239.273zM5.014 63.387a2.89 2.89 0 0 0-.161.717c.144-.345.36-.623.16-.717zm32.627 14.718c.139-.056.195-.112.183-.162-.139.056-.216.106-.183.162zM4.835 64.943c.028-.05.039-.1.061-.15a2.966 2.966 0 0 1-.044-.684c-.106.256-.178.55-.017.834zm43.1-18.926s.01-.055.022-.078c-.034 0-.034.028-.022.078zm1.739-9.794c.022.094.027.25.044.394.011-.072 0-.189-.044-.394zM4.936 57.05c-.011-.217-.028-.034 0 0zm.973-1.038c.028.044.061.083.117.089a.196.196 0 0 1-.117-.09zm.378 11.121v.016c.05-.06.039-.05 0-.016zM5.052 56.728a1.662 1.662 0 0 0-.078.278c.017-.044.045-.127.078-.278zm-.117.039c.012-.073.017-.134.028-.19-.039-.027-.066 0-.028.19z"/><path d="M4.947 57.35c0-.122.011-.239.028-.35-.017.044-.033.061-.039.05 0 .061 0 .156.011.3zm44.711 6.258s.01-.033.022-.044c-.106-.217-.089-.117-.022.044zM11.322 77.03s-.016.012-.022.012c.011 0 .022.006.033.006v-.023l-.01.006zm.773-.192c-.322.306-.511.272-.761.217l.272.689.495-.906h-.006z"/><path d="m42.031 75.053-.561-.16c.617-.418 1.1-.346.567-.596 0 .762-2.096.278-2.101 1.034l-.373-.122c.106 0 .117-.05.217-.05-.728-.295-.467.59-1.373.567-.316-.028-.544-.117-.339-.228l-.678.25c-.205 0-.166-.133.04-.133l-1.057.155v-.022c-.133.133-.461.345-.622.434-.278-.084.127-.09.05-.178l-.573.233c-.256-.172.217-.406.623-.411-.612-.706-.473.233-1.696-.106l.545-.144c-.395-.4-.817-.2-1.462-.423.156.134 1.306.567.684.812-.183-.04-.422-.05-.75.128-.023-.267-.356-.178-.773-.128v-.356c-.44.14-.395.317-.65.495-.506 0-.634-.267-.767-.495-.812 0 .589.406-.367.534-.684-.095-1.145.083-1.94.339-.478-.095.072-.223-.106-.311l-.4.305c-.105 0-.072-.089-.061-.133-.345.128-.011.355-.561.483-.128.4-1.168-.511-1.835-.038-.172-.095.073-.223.012-.356-.929.339-.8.25-1.557.678l-.672-.206c.494.245-.112.59-.645.873.178.122.328.228.433.278l-.861.228c-.106-.056-.022-.178.111-.334-.056.034-.111.061-.156.09-.316-.123-.16-.334.05-.54l.323.206c.205-.223.394-.473.344-.678a.691.691 0 0 1-.277.105c.055-.061.088-.117.06-.15-.033-.039-.116.044-.255.144l-.211-.389-.045.162-1.145-.206c-.795.428-1.484 1.04-2.768 1.245.312-.3.056-.478.061-.823.362.356.995-.189 1.662-.133-.35-.028-.278-.195-.194-.256l-1.179.373c.017-.284-.26-.206-.572-.312.25.55-.878.4-1.356.584-.034-.183.078-.378.667-.35-.667-.4-.823.678-1.479.339.145-.011.223.017.278-.078-.333.178-1.162.067-.973-.1h.145c-.962-.05-2.918.061-3.052.534-.01-.061.112-.573.167-.667l-1.678 1.623c.144-.412-.456-1.362.339-1.612-.228-.056-.512-.117-.99.039.156.055.4.578.19.622-.595-.439-.412-.233-1.14-.606.233.084-.011.723-.384.712.056-.095-.039-.628.095-.695l-.906.64c.239-.117-.028-.529-.078-.707.028.123-.367-.005-.506.056a.79.79 0 0 0 .134.145c-.19-.034-.373.077-.623.233-.245.15-.545.356-.873.478-.094-.044-.15-.184-.133-.45.128.055.806-.417.9-.74-.16.04-.55.095-.917-.144a1.638 1.638 0 0 1-.511-.561c-.145-.24-.261-.445-.317-.684l.19-.167-.19-.706c.234.223.595.65.945 1.106.345.534.69.767.884.85.15-.233.222-.116.211-.355.172-.072.256.089.267.122.022-.078.039-.11.061-.205l.078-.678c-.378.05-.345-1.051-.656-1.006l.345 1.484c-.373.05-1.034-.884-.94-1.846.156-.239.662.2.784.184-.122-.128-.217-.918-.128-1.006l.189.41c.156-.533-.467-.888-.094-1.516.027-.223.5-.65.277-.695-.433.35-1.756.383-2.067.133.033-.078.439-1.15.656-1.4.344-.356.783.566 1.078.266-.1-.016-.222-.222-.261-.306.094-.233.311.106.278-.4-.378-.094.055-1.028-.317-.25-.095-.5.089-.522.089-1.106-.25.178-.817-.545-.917-1.04.094.034.222-.077.283-.127.056-1.012.24-1.556.267-2.501.094-.084.217-.54.372-.34-.066-.138-.189-.266-.194-.555.339-.556.039.65.439.228-.217-.04-.29-.762-.417-1.179-.345.123-.083.962.044 1.379-.466-.006-.944-.745-1.139-1.734-.1-.79.311-.334.245-.473.11-1.473-.795-1.273-.434-2.49.306-.478.595-.011.812-.117.1.645-.206.979-.206 1.412l.15-.534c.094.206.161.634.072.868.278-.4.095-2.49.362-3.63-.095-.206-.195-.556-.317-.389l.039.361c-.245.328-.323-.683-.445-.228-.161-.483-.422-1.033-.272-1.712l.344-.122c-.1.011-.211.44-.111.634-.144-.284.478-1.034.033-1.356l-.244.472c-.167-.49-.517-1.09-.4-1.695-.34.272.039.139-.362.561.495-.367-.044 1.54.478.95-.461.434-.205.757-.606 1.33.112-.018.217-.201.156.305.033.022.072.078.1.11 0 .018 0 .023-.01.034l.01-.027s.022.022 0-.012c.05-.122.111-.216.172-.255.256.255.234 1.061.362 1.334-.061.3-.128-.128-.25.033l.194.411c-.25.034-.428.79-.561.084l-.022.633c-.145.373-.212.884-.112 1.207-.06.3.262.761.073.5l.133 1h-.06c-.05.99.372 2.046-.1 3.157.055.334.122.678.039 1.229l-.217.105c.067.428-.245 1.273-.022 1.462-.595.445-.178 2.062-.3 2.807l.283.033c-.028.517.039 1.012.133 1.651l.25-.033c.19.556-.216 1.412-.216 2.284-.095-.06-.061-.283 0-.439-.295.511-.211 1.067-.106 1.606.028.134.05.273.078.4.022.145.039.39.045.573.01.395-.017.762-.134 1.184.078.328.039.595-.033.9 0-.033 0-.06-.011-.083 0 .04 0 .095-.011.156-.05.2-.106.411-.156.639a8.71 8.71 0 0 0 .156-.556c0 .2 0 .462.027.728.128-.01.273-.028.412-.05a2.278 2.278 0 0 0-.056.267c.039 0 .067 0 .111-.011.367.094.44-.133.384-.334.239-.044.461-.1.639-.166.017.216.322.178.611.139.3-.04.578-.067.767.16.517-.233 1.573-.194 1.729-.666.011.061.089.089-.056.094.3.05.606.1.873-.038l.134.338.65-.472c.405.2.572.317.178.584.95-.423.778-.167 1.584-.584l-.034.222c.29-.016.75-.322.929-.144.661.406 3.229-.022 4.913.311-.345-.64.79.267.84-.239.1.15.338.228.072.373.85-.178 1.295.2 1.867-.245.106.15-.172.233-.083.317.067-.034.267-.145.361-.056.09.09-.122.134-.255.206.872-.056.944-.534.989-.978.45.194.672.155.978-.15.161.138.423.278-.117.355.306.006 1.873.134 1.89-.222.1.083.428.005.506-.039.684-.011.75.017 1.417-.05l-.189-.05c.245-.44.556-.122 1.095-.206l-.01.045c1.261.239.527-.178 1.772.105l-.083-.26c.078-.579 1.106.266 1.806 0l-.266-.134c.372-.217 1.139.706 1.54.745.088.044-.129.088-.245.133 1.05.261.105-.356.867-.5.155.178-.145.489.372.489.273.133 1.434-.734 2.162-.434-.166-.133-.333-.26.011-.4.534-.1 1.512.417 1.957-.078.072.034.1.067.106.106.4-.156 1.322-.317 1.55-.59.467.885 2.524-.683 2.596.156l1.267-.172-.022.089c.817-.028 1.084-.256 1.35-.49.195.04.067.134.056.179 1.206.044 1.318 0 2.268-.534l.134.261c.127-.094.566-.033 1.117-.01.139.005.283.01.428.01h.222l.122-.01.173-.017a6.038 6.038 0 0 0 1.306-.262c0 .034 0 .09-.123.14.445-.145.968-.2 1.54-.25.05-.768.172-1.58.19-2.335 0-.19 0-.367-.012-.534a1.045 1.045 0 0 0-.067-.3.699.699 0 0 0-.372-.395l-.267-.861c-.056 1.123-.439-.156-.595.306-.066-.44.278-1.146.34-.606l-.05.083c.527.189.155-1.395.51-1.373-.077-2.207.156-4.363.106-6.436l-.4.25v-.723c.09-.194.311-.267.311.25.223-.278-.222-.856-.31-.867.127-1.011.488.378.488.067l-.044-.417-.045.095c-.178-.334-.355-.356-.355-.979.066-.394.244-.21.255-.367.028 0 .04-.05 0-.238v-.912l-.305.378c-.173-.395-.017-.856-.362-.422.54-.64.056-3.397.206-3.786-.267-.55-.284-1.111-.3-1.8-.056.177-.411.3-.4-.3.756.172.26-1.107.761-1.63-.322.456-.206-1.689-.661-.978.022-.5.278-.05.422-.444-.383-1.173-.044-2.63-.267-4.063-.1-.017-.228.244-.4-.056l.423-.806c-.073-.283-.584-.217-.29-.767-.077.084-.188.2-.239.011.24-2.879-.839-5.786-.122-8.737-.166.405-.2.144-.228-.156-.033.195-.239.011-.372.056l.294-1.234c-.377-.2-.1-1.295-.455-1.401l.083.378c-.444-.49-.878.767-1.417.722.506.545-.606 1.557.128 2.452-.095.217-.184-.167-.3-.05.244.222.31.505.239 1.05l-.062-.055c.156 1.495-.022 2.15-.05 3.846l.256-.145c-.006.367-.083.445-.139.623.428.384-.056-1.017.411-.673-.5.523.19 2.546-.394 2.924.044.556.289-.189.333.367l-.15.161.222.122c0 .367-.194.567-.333.595.011-.089-.061-.25-.078-.345-.156.49.178 1.329.133 1.496l.056-.545c.145.75.2 1.595.29 2.434.077.834.183 1.635.4 2.352l.116-.123c.306 1.095-.067.9.111 2.113l-.033-.045c.139.239.222.561.228.895-.161-.3-.25.595-.434.2.312 1.195.228.584.728 1.362l-.194.194c.2.261.3.284.383.89-.2-.495-.294.405-.556-.145-.394 1.306.545 1.89-.094 2.507.595.567.272-1.129.406-.8.172-.284.45.466.405.878 0 .411-.7.728-.65 1.762 0-.106-.044-.106-.044-.212-.128.39.222.75 0 1.234.355.256 0 .617.444.678l-.133-.944c.133.533.667 1.022.445 1.917-.09-.066-.217-.328-.29-.506-.122.262.1.495-.022.767-.444-.06-.133-1.15-.489-1.712-.178.284.356 1.079-.128.806.623.395-.044 1.023.44 1.707l-.267-.04c.044.112.178.334.178.54l-.356-.361c.311.556-.223 1.1-.05 1.64-.04-1.14.311-.267.489-.75.395 1.394-.667.827-.5 2.395-.045-.212.139-.8.267-.473-.045.3-.14.7-.273.884.084 1.04.267-.167.44.272-.312.362.144.506.255.962l-.267.011c-.144 1.19.567.3.384 1.379l-.384-.445.106.556-.306-.106c.24.6.184.79.111 1.384.184-.15.49.083.506.578-.156.2-.256-.111-.211.278-.084-.067-.184-.122-.223-.167-.022-.022-.033-.044-.016-.072.01-.022.044-.044.105-.144-.089-.034-.172-.162-.26-.195a1.074 1.074 0 0 0-.079.306.154.154 0 0 0 0 .1c.017.066.05.144.056.183.011-.028.022-.061.061-.072.128.155.256.378.384.656-.1 0-.184-.14-.267-.245.017.05.044.106.083.178 0 .05-.022.089-.089.117-.139-.184-.3-.367-.333-.484-.011-.01-.017-.028-.028-.05l.028.045c.01.078-.023.15-.078.233-.094-.083-.272-.228-.267-.311.167-.15-.878.533-1.59.439-.033.044-.105.094-.26.145-.712.027-1.362-.167-2.169.216l-.516-.339c-.645.156.694.423-.384.684-.761.2-.322-.3-.606-.384-.361.234-.995.7-1.734.45.228-.094.417-.055.634-.105l.016.033zm-8.087.9c.15-.066.45-.266.578-.122-.155.323-.305.19-.578.123zM21.65 77.289c.117-.095.295-.056.506.039-.15.027-.317.022-.506-.04zM5.12 59.418l.011.017c-.111.35-.067.227-.011-.017zm.128-.728c-.034-.072-.072-.072-.111-.04.066.05.066.218.044.407.072-.05.122-.145.067-.362v-.005zm46.133 2.546-.066.144c-.09-.317-.017-.233.066-.145z"/><path d="M23.033 76.871a.275.275 0 0 1 .072.145c.061-.05.061-.1-.072-.145zm24.006-2.479h.022s.017-.033.017-.05l-.045.05h.006zM7.276 70.078a.72.72 0 0 1-.145.29c.067.01.123-.056.145-.29zM4.853 54.81l.06.467c-.01-.228.05-.306.095-.422-.06.01-.155.1-.155-.05v.005zm1.705-4.046c-.033-.067 0-.145-.033-.211l-.122.016c0 .295.1.495.161.195h-.006zm-.811 3.622c.228-.033.156-.328.117-.656v.056c-.317-.1-.211.25-.117.6zm.111-.733a1.127 1.127 0 0 1 0-.305c-.127-.04-.027.122 0 .305zm-.745 4.109c.061-.156-.289-.1-.194-.19-.284-.177.328 1.046.194.19zm1.384-3.632-.283.118.222.183.061-.3zm-.244 2.592.084-.523c-.045.006-.073-.06-.095-.144-.017.322-.072.678.006.667h.005zm-.011-.667c.006-.166 0-.328-.039-.422 0 .089.006.289.039.422zm.328-1.202-.061.15-.028.373.089-.523zm-.472 7.511.067.573c.094.06.155-.095.122-.311-.061-.14-.095-.35-.19-.267v.005zm.794-1.717c-.061.155-.122.16-.217.25l.345.022-.128-.272zm.051 1.673c.094.06.255.839.25.11-.095-.06-.161-.633-.25-.11zm-.639 8.616v-.145l-.567.006.567.139zm1.277 5.778c-.016-.034-.044-.028-.078-.011-.06 0-.333.311-.189.01-.133.034-.15.334-.266.373.016.006.027.017.039.023.239-.084.266-.067.494-.395zm-.539.374s-.05-.022-.083-.033c.033.033.06.039.083.033zM49.88 34.617l.094-.44-.172.29.078.15zm-.461-.811.355-.122-.339-.244c.022.094.061.283-.017.36v.006zm-16.731 41.52-.028.09c.072.088.178.088.378.088l-.35-.178zm5.892-.234-.1.005.217.306-.117-.311zm4.886-.883c-.2.005-.428.106-.634.111.434-.105.728.29.634-.111zm3.768 1.522c-.011.067.217 0 .256 0-.067-.088-.317.017-.256 0zm-.695-.951.094.006-.25-.128.156.123zm-.117-1.01c-.383.138.106.36-.011.555l-.084.039.329.039c-.078-.211-.323-.473-.228-.64l-.006.006zm.801-.622c-.15.044-.144-.106-.039.128.017-.011.028-.017.04-.028 0-.022-.006-.05 0-.106v.006zm0 .104c.123-.083.023.106 0 0zm-.127-.483.15.127c.088-.038.1-.16.166-.122-.089-.133-.178-.1-.316-.005zm-.301-.111.067.067c.038-.017.05-.033-.067-.067zm.2.217-.134-.144c-.06.027-.189.038.05.066-.116 0 0 .017.084.078zm-.055.088c-.078.083-.122.194-.272.061.078.267.35.2.272-.061zm-.934.801-.1.116.144.078c-.072-.039.084-.217-.039-.194h-.005zm1.228-1.885c-.083 0-.222.061-.328.078l.106.1c.056-.056.1-.161.228-.178h-.006zm-.328.078-.156-.15c-.01.139.062.16.156.15zm-.556.713.329.233-.334-.284.006.05zm.862-1.386.2.077-.306-.144.106.067zm-.062-.394c.167.055.273-.106.373-.04-.033-.105-.178-.188-.306-.266.073.083.062.178-.066.306zm-.117-.439c.04.045.112.084.19.134a.55.55 0 0 0-.19-.134zm-.255 1.089c.05-.017.184-.045.234-.14l-.234.078v.061zm-.01-.055h.005v-.14c0 .017 0 .056-.01.14h.005zm.012.073v-.017s-.03.012 0 .017zm-.247.682c-.139-.082-.294-.266-.483-.066.167.056.272-.061.483.067zm-.049-.59-.044.173c.06-.006.15-.045.222 0l-.178-.167v-.006z"/><path d="m46.406 71.574.078.078.016-.061-.094-.017zm.417-.829c-.105-.067-.117-.144-.139-.233-.044.1-.061.2-.061.294.078.011.211.045.2-.055v-.006zm-.05.361-.016-.016s-.028.016.016.016zm-.123-1.477-.044.017h.039v-.017h.005z"/><path d="M46.584 70.823c-.045.072.016.117.094.15a.446.446 0 0 1-.05-.172c-.033 0-.055 0-.044.016v.006zm.327-.613c-.05.04-.088.084-.127.129.072-.04.189-.123.127-.128zm-.088.852s.011.005.011.011c.05-.028.022-.022-.011-.011z"/><path d="M46.823 71.062a.757.757 0 0 0-.15-.09c.022.045.05.084.084.117a.184.184 0 0 1 .066-.027zm-1.706-1.652c.222.006.428.19.2.368.172.155.89.022 1.29-.134-.095 0-.184 0-.323-.161-.122.061-.267.378-.473.245-.122-.217.073-.184.184-.295-.273.1-.406-.273-.806-.211l.144.189c-.06.005-.166-.061-.222-.006l.006.006zm1.478.552.028.066c.033-.078.122-.139.289-.244-.111-.111-.195-.128-.267-.134l-.017.34-.033-.023v-.005zm.045.377c-.24-.045-.35-.206-.606-.095.022.2.205.134.316.25-.072-.322.14.09.262-.15.044.062.055.117.072.173.028-.061.061-.117.1-.172h-.017v.01c-.027.017-.044.023-.027 0v-.005c-.034 0-.062 0-.09-.011.045-.095.062-.017.09.011h.033l-.145-.317c-.027.073-.022.156.011.306zm-1.112 1.696s.039-.01.055-.016c-.033-.017-.05-.028-.055.016zm.138-.145c.034.022.134.033.112.117-.067.072-.117.005-.195.016.067.045.183.15.289 0l-.033-.022c.072-.139.361-.322.394-.3-.21.05-.361.095-.567.195v-.006zm.418-.783-.128-.267-.2.15.122-.011c-.039.155.111.117.206.128zm.683-1.512.256.028-.367-.145.11.117zm-.039-.349.217.005-.133-.089-.084.084zm-9.699-8.861-.011.067s.01-.045.01-.067zm.478-.095-.01-.11c-.012.06-.012.11.01.11zm9.199.29c.105-.056.233-.117.31-.156.079-.072.095-.133-.027-.117l-.244.062c.038.116.01.155-.04.216v-.005zm-4.752-2.24s.028.045.04.073c.021-.083.038-.161.055-.24a3.83 3.83 0 0 1-.1.168h.005zm.016 1-.166-.139c.04.05.095.1.167.14zm-5.285 2.012c.083.022.16.027.244.055 0-.055-.122-.039-.244-.055zm9.899 4.285c.094-.1.133-.178.144-.25-.139.122-.344.216-.144.25zm-9.977-7.782a.197.197 0 0 0-.039.162c.044-.05.061-.106.039-.162z"/><path d="M46.723 65.098s-.039.033-.055.055c.039.072.072.145.055.24.106-.09.167-.19 0-.29v-.005zm-10.789 7.693s-.017.017-.028.022c.034 0 .034-.005.028-.022zm-2.546 3.279c-.017-.033-.01-.088-.017-.138-.016.022-.016.066.017.139zm13.407-8.242c.027.011.016.072 0 0zm-.945.383s-.062-.027-.117-.027a.26.26 0 0 1 .117.027zm-.622-3.863c-.039.01-.05.016 0 0zm1.462 3.596a.39.39 0 0 0 .072-.094.637.637 0 0 0-.072.094zm.11-.016s-.016.044-.022.066c.04.012.067 0 .023-.066z"/><path d="M46.784 67.727a.298.298 0 0 1-.022.122c.017-.017.028-.022.04-.017a.543.543 0 0 0-.018-.105zm-11.228-1.133s-.011.01-.022.016c.094.084.083.045.022-.016zm8.677-7.104.01-.006.012-.011-.022.016zm-.183.039c.305-.234.266-.15.2-.056.238-.206.477-.417.716-.639-.306.206-.611.44-.917.695z"/><path d="M36.58 60.586c.088.05.166.1.244.155.25.306.161.2.445.44-.35-.295-.334-.323-.312-.35.023-.028.04-.05-.166-.39.044.045.089.084.127.128-.016 0 .006.039-.005.033.244.312-.217-.51 0-.45.078.04.128.14.128.234a.341.341 0 0 1 .027-.1l.095-.117c.067 0 .083.128.011.133l.334-.133v.022c.027-.128.1-.328.144-.417.111.09-.028.09.011.178l.161-.217c.117.178-.01.395-.144.395.328.7.122-.217.6.139l-.167.128c.2.4.306.217.562.445-.072-.134-.534-.584-.356-.812.072.044.156.056.245-.111.05.267.15.178.289.139l.05.35c.133-.128.089-.306.155-.478.178.005.256.272.328.495.278.016-.255-.406.056-.523.25.1.383-.072.628-.317.178.1 0 .217.072.312l.106-.3c.033 0 .039.088.039.133.105-.122-.04-.356.139-.473 0-.394.461.517.639.05.072.095 0 .223.033.356.29-.328.25-.239.473-.661l.25.205c-.195-.25-.017-.583.15-.861-.072-.122-.134-.228-.178-.278l.283-.217c.045.056.023.178-.01.334.016-.034.033-.062.044-.09.122.123.083.329.028.534a4.113 4.113 0 0 1-.128-.205c-.056.222-.1.467-.061.672a.208.208 0 0 1 .089-.105c-.012.06-.023.11-.006.15.011.039.039-.045.078-.14l.105.39v-.156l.412.211c.267-.428.361-1.022.861-1.228-.155.306-.094.483-.161.834-.039-.362-.25.172-.372.11.078.034.06.201.05.257a1.95 1.95 0 0 1 .255-.35c-.039.283.028.21.062.322.055-.562.277-.395.46-.578-.066.194-.166.394-.271.355 0 .212.088.04.205-.144.111-.178.256-.373.245-.19-.034.006-.04-.021-.1.079.16-.178.289-.05.133.122h-.033c.11.056.367 0 .717-.211a.82.82 0 0 0 .289-.19c-.061.056-.584.54-.684.635.545-.445 1.078-.745 1.617-.901-.205.122-.56.428-.889.667-.328.245-.634.445-.75.473-.061.088-.134.172.01.155.062-.055.601-.483.64-.45-.467.433-.25.272-.645.617.09-.09.734-.361.712-.234-.095.028-.64.273-.7.278a2.17 2.17 0 0 1 .628-.028c-.112-.027-.534.162-.712.234.122-.044-.017.133.045.161.05-.028.1-.055.15-.089-.05.1.166.128.394.2.228.073.456.184.44.362-.128-.045-.79-.128-.873.055.317.095 1.528.406 1.773.728l-.184.056.206.25c-.478-.161-1.484-.606-1.873-.85-.15.133-.217.033-.206.239-.172.066-.255-.117-.267-.178l-.122.472c.373-.01.367.373.678.361l-.378-.522c.373-.011 1.056.322.984.656-.15.083-.661-.078-.79-.072.129.044.24.322.151.355l-.195-.144c-.144.183.49.317.128.534-.022.077-.483.227-.261.244.428-.122 1.745-.128 2.068-.039-.028.028-.412.4-.623.484-.333.122-.795-.2-1.084-.095.1.006.228.078.267.106-.089.083-.317-.04-.272.139.378.033-.04.361.317.089.105.172-.078.183-.067.389.244-.061.834.189.94.361-.095-.011-.223.028-.279.044-.033.356-.21.545-.21.873-.09.028-.201.19-.368.123.067.05.195.088.206.194-.328.2-.05-.228-.445-.078.223.011.306.267.445.412.339-.045.067-.334-.072-.484.466 0 .961.25 1.178.595.117.272-.3.122-.233.166-.084.517.822.428.489.856-.295.173-.595.017-.812.056-.117-.222.184-.345.172-.495l-.139.19c-.1-.073-.177-.218-.088-.3-.267.144-.04.872-.284 1.272.1.067.206.189.328.128l-.044-.123c.239-.116.339.228.444.073.173.166.44.35.311.583l-.339.05c.1-.005.2-.16.095-.222.156.095-.45.373 0 .472l.233-.172c.178.167.545.361.44.573.333-.106-.04-.045.35-.206-.49.139.005-.534-.5-.311.45-.161.188-.267.572-.473-.111.006-.211.073-.161-.1-.034-.005-.072-.028-.1-.039 0 0 0-.005.005-.01l-.01.01a.403.403 0 0 1-.173.095c-.261-.084-.256-.361-.39-.456.05-.106.129.039.25-.017l-.2-.139c.25-.016.412-.283.562-.038v-.223c.145-.133.2-.311.095-.417.05-.105-.278-.26-.084-.172l-.155-.345h.06c.029-.344-.416-.706.034-1.094-.061-.117-.139-.234-.067-.429l.217-.038c-.072-.15.217-.44-.005-.506.583-.156.133-.712.239-.973l-.284-.011c.017-.178-.061-.35-.172-.572l-.25.01c-.206-.194.183-.489.166-.794.095.022.067.1.012.15.572-.35-.395-.773.022-1.09-.09-.083-.056-.144.005-.2 0 .006 0 .017.011.023v-.034c.045-.033.095-.072.134-.111a.49.49 0 0 0-.133.095.538.538 0 0 0-.095-.256c.089-.006.178-.034.267-.05 0-.011 0-.022-.006-.04.1-.16-.122-.116-.328-.038a.608.608 0 0 0-.155-.178c.439-.155-.134-.328.333-.572-.222-.045-.144-.69-.628-.523.061-.033.095-.083.095-.017.06-.16.122-.344-.011-.389l.35-.272a2.092 2.092 0 0 0-.456 0c.222-.328.35-.534.611-.528-.2-.1-.233-.15-.267-.206-.033-.05-.072-.1-.272-.083l.228-.206c0-.039-.028-.06-.061-.072-.172.067-.406.206-.34.067.045-.211-.35-.2-.805-.184-.473.017-.95.045-1.334-.122.017.322-.061.256-.161.172-.106-.083-.25-.183-.278.073-.033-.15-.156-.228-.011-.373-.223.095-.4.045-.54.028-.105-.017-.194 0-.277.222-.05-.15.044-.227 0-.316-.023.033-.084.144-.123.055-.039-.089.034-.133.073-.206-.312.056-.295.529-.273.973-.178-.194-.25-.155-.333.145-.067-.14-.173-.284.01-.35-.11-.017-.677-.14-.65.216-.044-.083-.15-.01-.177.034-.245.005-.267-.028-.5.038l.072.05c-.04.44-.184.123-.367.195v-.044c-.478-.25-.167.166-.645-.117l.061.261c.045.573-.428-.278-.645-.022l.112.139c-.106.211-.506-.712-.656-.756-.04-.044.033-.089.072-.133-.422-.273.011.35-.245.477-.083-.177-.016-.483-.205-.483-.123-.139-.417.7-.734.395.084.133.167.26.061.394-.178.095-.633-.428-.711.061a.244.244 0 0 1-.061-.1c-.15.156-.612.35-.59.606-.294-.4-.583-.194-.767-.005-.188.194-.3.367-.655.05-.09.044-.2.078-.267.139v.322l-.084-.072c-.089.372.09.628.273.845-.061.055-.134-.04-.173-.067-.205.483-.189.617.195 1.128h-.278c.139.2-.478.65-.178 1.078a.249.249 0 0 1-.122-.05c.294.478-.828 1.057.167 1.279l.228.317c.1-.39.433.083.605-.072.05.155-.322.383-.366.188l.05-.027c-.517-.1-.212.478-.567.444-.017.773-.34 1.507-.4 2.23l.41-.062-.033.25c-.1.061-.322.072-.294-.105-.234.083.178.31.267.322-.184.344-.467-.161-.484-.05l.022.15.05-.033c.161.127.334.144.306.36-.089.134-.256.056-.272.112-.028 0-.045.017-.017.084l-.05.316.328-.11c.15.15-.033.294.339.166-.572.189-.256 1.173-.434 1.295.223.206.212.4.173.64.066-.056.433-.079.378.127-.74-.106-.34.367-.884.511.361-.133.061.595.578.378-.067.173-.278 0-.461.123.272.422-.223.9-.145 1.417.1.011.25-.067.39.044l-.501.25c.044.1.561.112.217.284.083-.022.211-.056.239.011-.512.984.317 2.051-.612 3.04.195-.133.212-.038.212.067.05-.067.239.011.372 0l-.384.412c.367.088.012.455.362.51l-.061-.138c.41.189.928-.222 1.461-.184-.466-.21.712-.505.05-.85.112-.067.167.067.295.033-.228-.088-.272-.194-.161-.372l.055.022c-.039-.522.195-.739.362-1.323l-.267.034c.039-.123.122-.15.189-.206-.395-.161-.034.35-.473.206.54-.15.04-.89.65-.979.012-.194-.305.045-.294-.15l.167-.044-.211-.056c.039-.128.25-.183.389-.183-.017.028.033.089.044.122.2-.155-.05-.467.017-.522l-.111.183c-.134-.534.105-1.173-.206-1.695l-.128.033c-.211-.4.15-.305.061-.739l.028.017c-.122-.09-.178-.206-.161-.323.139.117.289-.189.445-.044-.228-.434-.184-.217-.634-.517l.211-.056c-.183-.105-.278-.116-.322-.333.167.183.322-.123.545.083.472-.428-.423-.689.244-.861-.561-.234-.333.372-.45.25-.19.089-.417-.19-.356-.328.017-.145.74-.211.745-.573 0 .034.039.04.033.078.15-.128-.183-.272.062-.428-.34-.111.027-.211-.406-.261l.083.333c-.106-.194-.611-.394-.35-.689.089.028.2.128.261.195.134-.084-.078-.178.061-.267.44.05.078.406.4.623.19-.09-.3-.395.173-.273-.6-.172.094-.35-.356-.617l.261.028c-.039-.039-.16-.128-.15-.2l.334.144c-.284-.21.272-.367.122-.567-.011.395-.322.073-.522.234-.328-.506.705-.245.605-.8.034.077-.172.272-.289.15.062-.1.167-.234.312-.29-.034-.366-.273.04-.428-.122.328-.105-.123-.183-.217-.35l.267.011c.194-.406-.55-.139-.323-.5l.362.178-.084-.2.3.055c-.216-.222-.15-.283-.055-.489-.19.04-.484-.055-.484-.239.167-.117.25.083.228-.178.167.067.373.145.117.245.089.016.166.066.25.083.189-.122.061-.333.061-.428-.011.034-.028.078-.067.1l-.35-.394c.106-.056.184 0 .256.05-.022-.078-.145-.14-.161-.25.216.038.439.044.533.21l-.222-.372c.094-.016.272-.166.35-.116.072-.095-.028-.223-.122-.362a.935.935 0 0 1-.111-.205.207.207 0 0 1-.011-.1c0-.028.01-.028.033-.045-.045-.01-.084-.022-.111-.05.055-.117.322-.083.039-.322.127.033.255.078.383.128-.039-.056-.161-.106-.289-.162-.128-.055-.261-.105-.328-.25-.111-.216.323.156.434.184a2.322 2.322 0 0 1-.311-.345c-.056-.094 0-.122.166-.011.034.067-.039.028-.039.061v-.033zm1.722-.573c-.044.067-.11.256-.183.106 0-.311.078-.178.183-.106zm4.119-1.2c-.033.094-.1.055-.178-.04.05-.027.106-.021.178.04zm4.147 8.204h-.012c.1-.128.062-.084.012 0zm-.112.255a.132.132 0 0 0 .111.011c-.066-.016-.072-.072-.055-.139-.072.017-.117.05-.056.128zm-12.74.045.073-.045c.072.117 0 .084-.072.045z"/><path d="M41.97 59.223c-.022-.045-.028-.095-.039-.145a.127.127 0 0 0 .039.145zm-5.335 2.119.05.01-.05-.01zm7.542 1.971a.298.298 0 0 1 .14-.1c-.068 0-.123.022-.14.1zm2.757 5.287-.072-.16c.017.077-.044.105-.083.15.06 0 .15-.04.155.01zm-1.612 1.461c.033.023.005.05.039.073l.122-.011c-.011-.1-.117-.167-.167-.062h.006zm.728-1.289c-.228.016-.144.116-.1.233v-.022c.317.022.211-.095.1-.212zm-.095.255a.228.228 0 0 1 .011.106c.128.011.028-.044-.01-.106zm.651-1.439c-.056.055.289.028.2.06.29.056-.35-.355-.2-.06zm-1.296 1.295.273-.05-.222-.056-.05.106zm.18-.911-.073.184c.044 0 .072.017.094.044.006-.11.062-.239-.022-.233v.005zm.021.233c0 .061 0 .117.05.145 0-.034-.016-.1-.05-.145zm-.295.428.056-.056.022-.128-.078.184zm.307-2.623-.078-.2c-.095-.023-.156.033-.117.11.067.05.106.123.195.09zm-.763.606c.056-.055.117-.06.211-.089h-.344l.133.09zm-.083-.585c-.094-.017-.278-.29-.256-.033.095.022.178.222.256.033zm.45-3.017.006.055.567-.005-.573-.05zm-1.3-2.679c-.139.222.35.061.172.267.134.06.145-.173.256-.112-.067-.072-.083-.133-.128-.15-.044-.01-.117-.01-.306 0l.006-.005zm.428.155s.05.05.083.078c-.033-.044-.061-.061-.083-.078zM33.066 76.621l-.122.15.194-.094-.072-.056zm.411.305-.36.028.322.1c-.017-.034-.045-.106.038-.128zm5.347-16.268v-.089c-.044-.089-.077-.089-.144-.094l.144.178v.005zm-1.734.07h.011c-.044-.094-.089-.194-.139-.294l.128.294zm.117.474s-.056-.061-.04-.067c.056.062-.35-.172.04.067zM15.48 17.47c-.017.033.211 0 .256 0-.056-.05-.317 0-.256 0zm-.556-.506.095.005-.24-.06.145.055zm-.023-.507c-.394.078.073.178-.06.284l-.09.022.323.016c-.056-.105-.273-.233-.167-.316l-.006-.006zm.84-.337c-.155.027-.133-.05-.044.066a.25.25 0 0 0 .039-.017c0-.01 0-.027.005-.05zm-.005.049c.127-.045.016.05 0 0zm-.101-.239.139.061c.089-.022.106-.083.172-.067-.078-.066-.166-.044-.317.006h.006zm-.295-.045.062.033c.039-.011.05-.022-.061-.033zm.19.1-.128-.067c-.061.017-.19.028.044.033-.117 0 0 .011.083.034zm-.061.05c-.083.045-.134.1-.278.04.061.133.339.088.278-.04zm-.979.428-.111.062.133.033c-.067-.017.1-.111-.022-.1v.006zm1.323-.988c-.083 0-.222.039-.328.055l.1.045c.056-.034.106-.084.234-.1h-.006zm-.328.055-.15-.067c-.01.072.056.078.15.067zm-.583.377.311.105-.316-.133.005.028zm.906-.732.2.033-.3-.056.1.023zm-.045-.195c.161.022.272-.067.372-.04-.033-.05-.172-.088-.3-.116.072.04.056.09-.072.156zm-.111-.212c.039.016.111.038.184.055a.6.6 0 0 0-.184-.055zm-.283.556c.05-.011.183-.033.239-.078l-.234.05v.034l-.005-.006zm-.006-.027h.006c0-.033.005-.061.011-.067 0 .012-.006.028-.017.067zm-.261.387c-.133-.033-.283-.122-.478-.01.161.022.278-.04.478.01zm-.028-.288-.05.09c.06-.006.155-.028.222-.012l-.172-.078z"/><path d="m14.996 15.357.078.04.022-.034-.1-.006zm.439-.427c-.106-.028-.117-.067-.133-.112-.045.05-.067.1-.062.15.073 0 .212.011.2-.038h-.005zm-.155-.551s-.028.005-.045.011h.04v-.011h.005zm-.084.601c-.044.039.017.055.089.072a.105.105 0 0 1-.044-.083c-.034 0-.056 0-.045.01zm.34-.322a.694.694 0 0 0-.128.072c.072-.022.189-.066.128-.072zm-.106.427h.01c.05-.012.029-.006-.01 0z"/><path d="M15.43 15.086c-.034-.017-.095-.028-.145-.04a.243.243 0 0 0 .083.056c.017 0 .045-.01.067-.016h-.005zm-1.673-.729c.222-.01.428.073.194.167.167.067.89-.039 1.29-.133-.095 0-.184.01-.317-.061-.117.038-.272.2-.473.144-.116-.1.073-.094.19-.155-.273.066-.406-.112-.807-.056l.145.083c-.061.006-.167-.022-.222.011zm1.468.195.027.033c.04-.039.123-.078.295-.139-.111-.05-.195-.055-.267-.05l-.022.167-.033-.011z"/><path d="M15.263 14.736c-.239-.011-.344-.084-.6-.017.022.1.206.056.311.106-.066-.156.134.039.267-.09a.15.15 0 0 1 .067.084.423.423 0 0 1 .106-.089h-.017c-.028.011-.05.011-.028 0h-.089c.045-.05.061-.011.089 0h.033l-.139-.15c-.033.039-.022.078.011.15l-.01.006zm-1.156.887s.04-.005.056-.01c-.028-.006-.05-.012-.056.01z"/><path d="M14.246 15.547c.034.011.128.011.106.05-.072.039-.117.011-.195.017.067.016.178.066.29-.012l-.034-.01c.078-.073.372-.178.406-.167a4.045 4.045 0 0 0-.573.122zm.45-.405-.123-.122-.205.083.122-.011c-.045.078.106.05.206.055v-.005zm.706-.785h.25l-.361-.05.11.05zm-.039-.172.217-.005-.133-.04-.084.045zm.567-9.527.084-.072a.355.355 0 0 0-.084.072zm-.439.033-.033.112c.033-.067.05-.112.033-.112zm-.378 5.247c.2-.067.517-.15.272-.128l-.239.034c.045.039.022.066-.028.1l-.005-.006zm-1.596-2.84s-.05.01-.072.022c.083.011.161.022.233.028a5.719 5.719 0 0 0-.16-.05zm-1-.001.15-.083a.4.4 0 0 0-.15.083zm5.92-2.717.244-.179c0-.133-.122.061-.244.178zm-3.257 8.042c.089-.055.128-.094.139-.133-.134.067-.34.128-.14.133zm-.1-5.046c.022-.05.039-.1.056-.161a.544.544 0 0 0-.056.161zm.227 4.774s-.033.022-.056.028c.045.033.078.067.062.111.1-.05.16-.106-.006-.144v.005zm3.357-.605-.027.017c.033 0 .033-.011.027-.017zm-2.2 1.944s-.022-.04-.028-.067c-.016.016-.01.033.028.067zm-1.034-.005c.029 0 .017.035 0 0zm-.945.244s-.061-.011-.117-.006c.056 0 .094 0 .117.006zm-.695-1.849c-.039.005-.044.011 0 0zm1.534 1.667a.347.347 0 0 0 .067-.05c-.017.011-.039.022-.067.05zm.112-.011s-.017.022-.023.034c.04 0 .067 0 .023-.034zm-.023-.101s0 .039-.022.06c.016-.005.027-.01.039-.01 0-.011-.012-.028-.017-.05zm2.323-4.791s-.011 0-.022.01c.1.028.083.017.022-.01zm-5.363.351c.3.039.266.078.205.122l.695-.077-.9-.04v-.005z"/><path d="M17.024 4.508a2.818 2.818 0 0 0-.027-.216c.389-.384.472-.262.494-.567-.239.394-.4.422-.567.45-.16.028-.328.055-.5.45l-.028-.161s.05-.04.072-.033c-.05-.362-.366.578-.539.489-.055-.05-.083-.162 0-.262l-.233.212c-.05-.012 0-.145.044-.14l-.294.1v-.022a5.65 5.65 0 0 1-.217.417c-.05-.1.045-.089.039-.183l-.161.211c-.045-.189.094-.406.205-.395-.06-.75-.139.212-.433-.183l.161-.122c-.089-.423-.228-.24-.44-.473.073.128.39.612.212.834-.044-.05-.117-.061-.194.106-.017-.267-.106-.19-.217-.145l-.034-.356c-.122.134-.083.312-.127.484-.14 0-.228-.267-.323-.484-.228 0 .24.395.023.517-.167-.094-.223.067-.317.323-.128-.09-.05-.211-.117-.3v.294s-.039-.083-.05-.128c-.033.128.106.34.039.467.083.3-.217-.155-.35-.128l-.5.106-.134.89c0 .027.028.055.122.072-.1.033-.216 0-.355.01.3.15.216.129.617.245l-.228.123c.26-.095.583 0 .85.077.128-.033.24-.066.29-.083l.2.139c-.056.022-.179.011-.329-.006.028.006.061.017.09.023-.129.06-.334.039-.534.01.066-.021.144-.044.216-.06a3.376 3.376 0 0 0-.667-.034.185.185 0 0 1 .1.045.402.402 0 0 0-.144 0c-.039.005.044.016.133.039l-.394.05h.155l-.239.205c.406.123 1 .217 1.173.428-.294-.039-.472.011-.817.023.361-.078-.161-.162-.095-.284-.033.061-.2.056-.255.045l.345.188c-.284.012-.212.056-.323.112.556-.067.378.133.556.21-.19.018-.378 0-.34-.1-.41.134.662.112.312.24-.005-.022.022-.04-.072-.045.167.05.044.195-.117.173v-.023c-.061.167.017.5.49.5-.062 0-.573.006-.668 0l1.607.212c-.406 0-1.368.144-1.601.022-.056.045-.122.095.028.167.055-.028.583-.095.622-.061-.445.122-.239.083-.617.228.084-.045.723-.034.706.027-.094 0-.628.04-.695.017l.634.122c-.117-.033-.528.023-.706.067.122-.022 0 .139.061.178l.14-.072c-.084.183.888.128.86.305-.127-.016-.794-.01-.872.084.322.022 1.545.094 1.8.233l-.183.04.217.105c-.483-.045-1.506-.195-1.906-.29-.14.073-.217.034-.195.129-.167.044-.261-.04-.272-.067l-.1.239c.372-.034.383.155.695.128l-.4-.228c.372-.034 1.067.083 1.011.25-.144.05-.667.005-.79.017.129.016.256.139.162.16l-.206-.055c-.133.1.5.122.15.25-.022.04-.472.145-.255.134.422-.09 1.74-.178 2.062-.156-.028.017-.395.222-.606.278-.328.083-.8-.045-1.084.022.1 0 .228.022.272.034-.083.044-.316 0-.266.088.378-.01-.023.178.322.023.111.077-.072.094-.05.194.245-.044.834.04.95.117-.094 0-.222.028-.277.039-.023.172-.19.278-.19.439-.088.022-.2.106-.36.083.066.017.2.034.21.084-.322.117-.055-.106-.444-.011.222-.006.311.11.45.172.34-.044.056-.167-.083-.228.467-.028.967.061 1.19.217.121.128-.301.078-.234.094-.067.256.828.162.5.39-.295.1-.595.044-.806.077-.117-.1.178-.178.167-.255l-.14.1c-.1-.028-.177-.095-.094-.14-.267.09-.027.429-.267.64.1.028.206.078.328.044l-.044-.06c.239-.073.339.094.445.005.172.072.444.144.31.267l-.338.044c.1-.011.2-.089.094-.117.156.04-.45.211 0 .234l.234-.1c.178.072.539.144.439.255.333-.072-.039-.022.35-.122-.484.1.006-.261-.5-.128.45-.105.189-.144.572-.267-.11.011-.21.05-.16-.039a.503.503 0 0 1-.1-.01h.005-.012c-.016 0-.022 0 0 0a.74.74 0 0 1-.166.055c-.261-.022-.261-.161-.395-.2.05-.056.128.011.25-.022l-.205-.056c.25-.022.405-.161.561-.056v-.11c.144-.073.194-.167.083-.212.05-.056-.283-.111-.083-.078l-.161-.16h.06c.023-.173-.427-.323.012-.546-.067-.05-.145-.105-.078-.205l.217-.034c-.078-.066.206-.228-.022-.244.578-.111.105-.356.205-.49l-.283.012c.011-.09-.072-.167-.189-.267l-.25.022c-.211-.083.167-.25.133-.4.095 0 .072.045.017.072.55-.21-.428-.35-.028-.533-.094-.034-.061-.067 0-.095 0 0 0 .006.011.011v-.016c.045-.023.09-.045.128-.061-.061.022-.111.038-.133.055-.006-.028-.04-.078-.106-.117l.267-.033s0-.006-.006-.011c.095-.05-.128-.028-.328.005a.593.593 0 0 0-.166-.05c.428-.06-.15-.11.305-.189-.228-.016-.183-.222-.655-.222.06 0 .088-.022.094 0 .05-.055.1-.105-.033-.144l.339-.04-.462-.088c.206-.078.323-.111.59-.061-.412-.145-.162-.123-.567-.245h.222c-.011-.056-.311-.117-.128-.156.411-.133.028-.55.4-.856-.644.084.284-.144-.216-.133.15-.022.239-.067.372-.028-.156-.139.233-.228-.195-.311.156-.022.228.022.317 0-.033-.011-.133-.039-.044-.061.089-.017.127.017.2.033-.034-.144-.506-.139-.95-.133.205-.084.172-.122-.117-.161.144-.034.294-.084.35.005.016-.055.194-.328-.161-.317.088-.022.022-.072-.017-.083l.022-.128-.461.728s.05-.01.083-.044l-.044-.045c-.117-.411.044-.116.1-.194l.01.044c.279.234.034-.166.318.111l-.084-.25c-.144-.556.273.273.29.045l-.067-.14c.022-.205.283.735.3.807.01.05 0 .083 0 .122.094.328-.04-.35.017-.445.022.19.027.484.055.517.011.078.017-.083.05-.216.028-.134.084-.25.084-.062.005-.15 0-.3.05-.416.077-.067.016.56.166.066a.473.473 0 0 1-.022.123c.067-.134.183-.228.317-.506-.167.5-.078.372.05.233.122-.139.272-.294.005.184l.145-.062-.067.1c.022.056.206-.172.406-.405-.028.066-.106.155-.145.205-.01.095-.016.128.045.084.033-.022.083-.072.156-.14.06-.05.139-.121.239-.21l-.262.31h.006c.061-.06-.039.1-.122.234-.084.134-.14.234.01.145-.027.028-.083.067-.116.094.156-.083-.022.15-.128.262-.1.122-.122.15.367-.112.083-.016.161-.033.245-.039.072-.183.422-.205.583-.355.061.05-.289.328-.339.272l.05-.039c-.511.234-.172.261-.522.4.016.106-.04.234-.106.34-.017.027-.033.044-.05.077l-.039.14a1.198 1.198 0 0 0-.039.277l.4-.067-.016.128c-.095.04-.317.067-.306-.022-.228.061.2.133.29.133-.151.184-.479-.033-.485.023l.034.072.044-.022c.173.044.345.039.334.144-.078.072-.245.056-.261.084-.028 0-.04.01-.011.044l-.023.161.317-.089c.161.056 0 .15.35.045-.55.15-.15.6-.317.678.24.078.245.172.228.294.061-.033.423-.088.39.017-.745.034-.306.217-.829.356.345-.111.117.283.606.117-.05.088-.278.033-.445.116.312.173-.139.467-.01.712.1-.006.238-.067.394-.028l-.473.189c.056.044.567-.022.24.111.077-.022.2-.056.233-.028-.411.55.511.945-.306 1.568.178-.095.206-.05.217 0 .039-.04.239-.034.367-.061l-.334.26c.367-.016.056.223.412.19l-.073-.056c.423.023.895-.261 1.423-.322-.483-.028.656-.35-.033-.411.1-.05.172.005.294-.028-.233-.006-.283-.05-.194-.15h.056c-.09-.24.122-.378.233-.678l-.256.055c.028-.067.106-.089.173-.122-.406-.017 0 .172-.445.167.522-.15-.044-.428.55-.556-.005-.095-.3.061-.305-.028l.16-.044h-.21c.027-.062.227-.117.366-.14-.016.017.045.04.056.05.183-.1-.089-.21-.033-.25l-.09.1c-.183-.233 0-.566-.36-.778l-.123.034c-.25-.167.122-.167-.006-.362h.028c-.128-.022-.194-.072-.189-.133.15.039.273-.122.44-.072-.267-.178-.2-.084-.673-.172l.2-.05c-.189-.028-.289-.023-.35-.123.183.067.305-.094.55-.022.428-.256-.484-.284.167-.434-.578-.05-.3.212-.428.167-.184.061-.434-.044-.378-.122.005-.072.717-.178.695-.35 0 .016.044.016.039.033.139-.078-.206-.111.022-.211-.35-.017.01-.106-.428-.084l.116.15c-.122-.083-.644-.127-.4-.3.09 0 .212.045.278.067.128-.05-.089-.078.04-.133.438-.017.105.189.45.26.183-.06-.334-.16.15-.144-.612-.027.066-.172-.406-.26l.26-.012c-.044-.017-.166-.044-.166-.078l.345.04c-.15-.04-.09-.09-.011-.14.039-.028.083-.044.105-.078.023-.044.023-.083-.016-.122.016.184-.067.167-.167.178-.106 0-.234 0-.328.039-.373-.272.672-.261.528-.712.039.062-.15.267-.272.195a.922.922 0 0 1 .283-.322c-.067-.29-.267.122-.433.038.31-.194-.134-.1-.245-.172l.267-.1c.155-.389-.556.145-.362-.2.123-.022.25-.044.373-.056l-.1-.105.3-.117c-.228-.061-.172-.133-.089-.35-.183.15-.478.267-.49.15.157-.195.251-.111.212-.278.167-.072.373-.155.134.095.088-.045.166-.062.25-.106.178-.228.033-.317.033-.39-.011.04-.022.084-.061.129a2.791 2.791 0 0 0-.373-.022.464.464 0 0 1 .256-.178c-.028-.04-.15.016-.178-.045.217-.155.434-.356.54-.294a1.543 1.543 0 0 0-.245-.106c.094-.1.256-.39.333-.422.123-.317-.422-.023-.26-.406-.04.033-.084.055-.112.044v-.01c-.061-.112-.061-.351-.523-.034.056-.134.112-.267.162-.4-.25.1-.195.5-.59.672-.283.14.156-.344.156-.45-.25.211-.65.64-.656.317.106-.078.123-.022.195-.056l-.045.011zm-2.206.412c.039-.067.133-.256.155-.1-.06.322-.083.177-.155.1zM13.01 7.326c-.089-.016-.05-.05.05-.089.023.023.017.056-.05.09zm2.174 5.775h-.012c.1-.066.062-.044.012 0zm-.112.134a.251.251 0 0 0 .112 0c-.067 0-.073-.034-.056-.067-.072.011-.117.033-.056.067zm.89-4.058.066-.028c.084.05.012.04-.066.028z"/><path d="M12.634 7.098a.605.605 0 0 1 .145-.016.219.219 0 0 0-.145.016zm5.758-2.686v.011l.05-.044-.044.033h-.006zm-5.681 7.032a.357.357 0 0 1 .134-.055c-.067 0-.123.016-.134.055zm2.858 2.413-.072-.072c.016.04-.045.056-.084.078.062-.006.15-.028.156 0v-.006zm-1.619.806c.034.011 0 .023.04.034l.122-.011c-.011-.05-.111-.078-.161-.023zm.735-.673c-.222.022-.144.067-.1.123V14.1c.317-.005.206-.055.1-.11zm-.095.133s.017.033.011.05c.128 0 .028-.022-.01-.05zm.645-.743c-.055.027.29 0 .2.016.29.011-.356-.15-.2-.017zm-1.289.71.278-.038-.228-.017-.05.056zm.177-.456-.072.095c.044 0 .072 0 .094.016.006-.055.061-.122-.022-.111zm.029.112c0 .028 0 .056.05.067 0-.017-.017-.05-.05-.067zm-.295.227.055-.033.017-.061-.072.094zm.272-1.306-.084-.095c-.094 0-.15.028-.11.061.066.017.105.056.2.034h-.006zm-.745.346a.764.764 0 0 1 .211-.056l-.344.022.133.04v-.006zm-.094-.279c-.095 0-.283-.122-.256 0 .095 0 .178.095.256 0zm.356-1.5.005.028.567-.04-.572.012zm-1.423-1.224c-.128.122.35.005.189.122.133.022.133-.095.25-.072-.145-.061-.067-.106-.44-.05z"/><path d="M12.661 10.06s.05.023.09.034c-.04-.017-.062-.028-.09-.034zm3.542 3.753-.106.094.184-.078-.078-.017zm.439.083-.356.073h.328s-.056-.05.022-.072h.006zM14.43 4.252v.089c.027.089.06.089.122.094l-.122-.183zm1.773.021-.028-.005-.061.333.089-.328zm1.712-.516c-.056-.011-.178.067-.234.056.178-.067-.033.366.234-.056z"/></g><defs><clipPath id="a"><path fill="#fff" d="M0 0h58.184v80H0z"/></clipPath></defs></svg>